<?xml version="1.0" encoding="UTF-8" standalone="no"?>
<!-- Created with Inkscape (http://www.inkscape.org/) -->
<svg xmlns:dc="http://purl.org/dc/elements/1.1/" xmlns:cc="http://creativecommons.org/ns#" xmlns:rdf="http://www.w3.org/1999/02/22-rdf-syntax-ns#" xmlns:svg="http://www.w3.org/2000/svg" xmlns="http://www.w3.org/2000/svg" version="1.1" width="1800" height="350" viewBox="0 0 1800 350" id="uni-mannheim_xA0_Image_1_" xml:space="preserve"><metadata id="metadata51"><rdf:RDF><cc:Work rdf:about=""><dc:format>image/svg+xml</dc:format><dc:type rdf:resource="http://purl.org/dc/dcmitype/StillImage"/><dc:title/></cc:Work></rdf:RDF></metadata><defs id="defs49">
	
	
	
	
	
	
	
	
	
	
	
	
	
</defs>

<path d="m 1756,196.082 c -2.646,3.787 -8.656,1.938 -12,2 -135.625,2.514 -275.736,0 -413,0 -425.635,0 -854.472,0 -1281,0 -0.851,0.184 -0.943,-0.391 -1,-1 -0.163,-1.162 0.221,-1.779 1,-2 568.302,0.666 1139.388,-1.334 1706,1 z" id="path30" style="fill-rule:evenodd"/>
<g id="Mannheim">
	<path d="m 841,207.082 c 1.313,0.354 1.573,1.761 3,2 13.128,30.538 25.736,61.598 38,93 10.706,-22.24 20.419,-48.854 30,-73 3.019,-7.605 5.362,-16.354 11,-21 4.039,2.76 3.438,8.757 4,13 4.331,32.694 7.709,72.048 14,105 22.114,14.082 26.885,-9.777 33,-27 10.73,-30.221 21.866,-67.085 32,-92 5.728,2.28 5.321,9.361 7,14 5.118,14.144 10.417,30.946 16,47 7.301,20.995 14.227,42.216 24,60 3.165,1.501 7.926,1.407 11,3 -4.495,5.713 -15.251,2.573 -24,2 -4.825,-0.316 -9.654,0.918 -13,-1 -1.47,-3.804 4.471,-0.196 3,-4 -2.307,-13.359 -7.143,-24.191 -11,-36 -10.333,0 -20.667,0 -31,0 -4.671,10.329 -9.014,20.986 -10,35 0.473,3.861 6.798,1.868 9,4 -2.827,5.358 -12.939,1.769 -21,2 -14.787,0.425 -32.334,1.985 -47,-2 -0.384,-3.384 4.427,-1.573 3,-6 -2.361,-24.306 -6.211,-47.122 -8,-72 -13.289,25.378 -22.479,54.854 -35,81 -15.181,-23.486 -24.115,-53.219 -35,-81 -3.563,23.438 -6.431,47.569 -8,73 1.6,3.733 6.728,3.938 12,4 -0.584,6.824 -9.152,3.053 -15,3 -7.257,-0.065 -16.325,2.492 -20,-1 0.597,-3.403 5.834,-2.166 9,-3 9.408,-37.593 9.746,-84.254 19,-122 z m 150,75 c 8.008,-0.659 18.657,1.323 25,-1 -5.313,-12.021 -7.307,-27.359 -13,-39 -3.702,13.632 -9.011,25.656 -12,40 z" id="path33" style="fill-rule:evenodd"/>
	<path d="m 1651,207.082 c 1.313,0.354 1.573,1.761 3,2 12.917,30.75 25.517,61.817 38,93 14.572,-30.428 24.935,-65.065 40,-95 6.27,7.575 4.783,19.084 6,29 3.528,28.758 7.979,62.204 13,90 3.163,3.17 9.519,3.147 14,5 -5.634,6.336 -24.329,0.565 -35,1 -3.241,-3.535 3.135,-3.516 2,-8 -2.869,-23.131 -6.271,-45.729 -8,-70 -4.371,4.271 -7.201,12.128 -10,19 -8.067,19.804 -16.041,41.309 -25,61 -8.85,-10.896 -13.545,-25.342 -19,-39 -5.412,-13.549 -11.68,-27.075 -16,-41 -3.958,22.708 -6.791,46.542 -8,72 1.161,4.506 8.209,3.124 12,5 -1.642,5.486 -8.767,2.046 -14,2 -7.678,-0.066 -17.116,2.386 -21,-1 1.17,-3.83 8.38,-1.62 10,-5 4.099,-26.505 8.484,-58.055 12,-87 1.479,-12.174 0.793,-24.763 6,-33 z" id="path35" style="fill-rule:evenodd"/>
	<path d="m 1081,208.082 c 1.615,-0.282 1.722,0.945 3,1 24.84,31.16 50.091,61.909 76,92 -1.841,-26.826 0.807,-58.14 -3,-83 -1.106,-5.227 -12.563,-0.103 -13,-6 10.422,-1.653 27.578,-1.653 38,0 -0.271,5.395 -9.914,1.419 -11,6 -2.101,37.899 -0.677,79.323 -3,117 -5.866,-0.031 -8.697,-6.259 -12,-10 -22.15,-25.087 -45.353,-52.824 -67,-80 1.371,27.295 -0.602,57.935 4,82 1.869,3.465 8.715,1.951 12,4 -2.253,5.874 -10.845,2.123 -17,2 -7.997,-0.16 -17.461,2.973 -22,-1 1.445,-3.889 9.618,-1.048 11,-5 3.209,-36.457 0.63,-78.704 3,-116 -0.282,-1.615 0.945,-1.722 1,-3 z" id="path37" style="fill-rule:evenodd"/>
	<path d="m 1215,208.082 c 1.615,-0.282 1.722,0.945 3,1 24.651,31.349 49.839,62.161 76,92 -2.688,-25.646 1.036,-57.702 -3,-82 0.039,-6.706 -12.449,-0.884 -13,-7 10.422,-1.653 27.578,-1.653 38,0 0.498,5.165 -7.518,1.816 -10,4 -4.517,36.483 -1.463,80.538 -4,119 -6.044,0.187 -8.698,-6.24 -12,-10 -22.087,-25.149 -45.512,-52.672 -67,-80 1.265,27.402 -1.318,58.651 4,82 2.406,2.594 6.726,3.274 12,3 -1.343,7.173 -10.438,3.132 -17,3 -7.836,-0.157 -18.401,2.852 -23,-1 2.019,-3.648 10.324,-1.01 12,-5 2.333,-37.334 0.779,-78.554 3,-116 -0.282,-1.615 0.945,-1.722 1,-3 z" id="path39" style="fill-rule:evenodd"/>
	<path d="m 1539,210.082 c 1.285,6.474 -0.569,17.959 -2,25 -5.415,0.415 -1.607,-8.393 -4,-11 -6.156,-4.177 -17.723,-2.944 -27,-4 -2.33,12.337 -0.336,28.997 -1,43 6.936,2.584 17.58,0.261 25,0 3.635,-0.365 3.713,-4.287 7,-5 0.315,6.732 -0.782,19.582 -2,28 -5.493,-0.507 -1.491,-10.509 -6,-12 -6.595,-1.739 -15.916,-0.751 -24,-1 0.911,16.089 -2.073,36.073 2,49 6.036,2.659 18.725,2.776 26,1 6.379,-1.621 4.171,-11.829 9,-15 2.236,7.425 -0.35,18.179 -2,25 -10.525,2.091 -25.349,1.068 -36,0 -10.649,-1.068 -21.294,2.901 -29,-1 0.756,-3.911 7.765,-1.568 10,-4 3.038,-32.786 3.375,-77.274 0,-110 -0.559,-5.108 -10.595,-0.738 -12,-5 3.32,-3.738 10.003,-1.973 15,-2 15.117,-0.081 34.315,0.874 49,-1 0.667,0 1.333,0 2,0 z" id="path41" style="fill-rule:evenodd"/>
	<path d="m 1379,212.082 c 0.508,5.508 -8.849,1.151 -10,5 -2.228,13.105 -0.411,30.256 -1,45 17.333,0 34.667,0 52,0 1.97,-12.976 1.52,-32.182 -1,-44 -0.432,-5.568 -12.094,0.094 -12,-6 12.4,-1.656 31.6,-1.656 44,0 0.01,5.342 -9.485,1.182 -11,5 -1.674,34.414 -1.634,75.58 0,110 2.713,3.287 10.419,1.581 14,4 -2.315,5.849 -10.111,2.236 -16,2 -10.271,-0.411 -22.755,2.406 -29,-1 0.597,-3.403 5.834,-2.166 9,-3 4.049,-15.617 2.78,-36.553 3,-56 -15.669,-2.331 -35.665,-0.335 -53,-1 0.507,18.16 -1.112,38.445 1,55 2.865,3.135 10.209,1.791 14,4 -2.51,5.663 -10.132,2.235 -16,2 -10.693,-0.429 -23.206,2.504 -30,-1 1.854,-3.48 9.039,-1.627 11,-5 1.634,-34.42 1.674,-75.586 0,-110 -1.6,-3.734 -11.035,0.369 -12,-4 -0.162,-1.163 0.221,-1.779 1,-2 13.67,0.664 29.996,-1.33 42,1 z" id="path43" style="fill-rule:evenodd"/>
	<path d="m 1607,212.082 c 0.498,5.165 -7.518,1.816 -10,4 -3.147,32.949 -3.322,78.082 0,111 2.865,3.135 10.209,1.791 14,4 -2.759,5.713 -10.754,2.283 -17,2 -10.402,-0.473 -22.439,2.592 -29,-1 1.697,-3.637 8.883,-1.783 11,-5 1.62,-34.075 1.692,-74.937 0,-109 -0.379,-5.287 -11.198,-0.135 -11,-6 11.711,-1.627 30.299,-1.694 42,0 z" id="path45" style="fill-rule:evenodd"/>
</g>
<path d="m 208,180.082 c 2.481,3.186 11.211,0.123 13,4 -1.257,3.743 -6.684,1.908 -10,2 -9.917,0.274 -24.68,0.595 -34,-1 0.185,-5.481 9.698,-1.635 12,-5 4.455,-42.212 2.218,-91.115 4,-136 5.882,-0.433 9.847,6.191 13,10 25.027,30.236 51.474,65.058 78,95 -1.638,-31.122 1.816,-70.897 -4,-96 -2.183,-3.483 -9.514,-1.819 -13,-4 2.681,-6.218 11.444,-2.158 18,-2 8.872,0.215 19.404,-2.945 25,1 -2.052,3.615 -10.005,1.328 -12,5 -4.336,41.997 -1.028,91.639 -4,135 -5.302,0.188 -9.827,-5.436 -13,-9 -24.957,-28.038 -50.383,-61.483 -75,-91 -0.19,-0.81 -1.003,-0.996 -1,-2 -0.81,-0.189 -0.997,-1.003 -2,-1 3.292,30.042 -2.265,68.932 5,95 z" id="path10" style="fill:#949494;fill-rule:evenodd"/><path d="m 600,44.082 c 0.89,0.443 1.789,0.878 2,2 -2.166,8.834 2.374,24.374 -5,28 0.144,-5.811 -1.67,-9.662 -3,-14 -7.253,-4.08 -19.788,-2.879 -31,-3 0,16.334 0,32.667 0,49 8.702,-1.221 19.443,1.643 27,0 4.853,-1.055 5.812,-4.588 10,-5 -1.222,10.111 -1.096,21.571 -3,31 -5.891,-1.109 -1.55,-12.45 -7,-14 -7.751,-1.582 -17.812,-0.854 -27,-1 0.611,17.722 -1.258,37.925 1,54 5.909,6.325 26.725,8.563 34,2 5.849,-5.276 0.386,-12.132 7,-16 1.918,8.725 0.471,22.369 -3,29 -22.938,1.91 -50.55,-0.096 -74,-1 0.507,-5.493 10.509,-1.49 12,-6 2.897,-37.718 3.55,-87.396 0,-125 -1.812,-4.521 -10.205,-2.462 -14,-5 3.699,-6.27 11.316,-2.304 18,-2 16.578,0.753 40.072,1.274 54,-1 0.938,-0.153 1.752,-1.101 2,-2 z" id="path12" style="fill:#949494;fill-rule:evenodd"/><path d="m 818,48.082 c -1.686,9.648 3.916,26.583 -4,30 4.069,-29.001 -45.056,-35.565 -39,-1 0.736,4.199 4.479,8.842 7,12 10.032,12.57 32.327,23.525 38,46 10.424,41.298 -30.144,67.477 -65,47 -2.203,-4.769 -0.484,-11.484 0,-18 0.434,-5.835 -1.378,-14.406 4,-16 2.01,15.572 5.767,28.476 18,31 18.264,3.77 29.529,-10.607 26,-28 -5.08,-25.037 -48.686,-36.784 -45,-76 2.485,-26.446 29.781,-37.811 60,-27 z" id="path14" style="fill:#949494;fill-rule:evenodd"/><path d="m 1020,45.082 c 1.666,7.822 1.956,22.508 -1,29 -4.364,-0.635 -2.101,-7.899 -4,-11 -6.878,-7.122 -24.436,-3.564 -36,-6 1.114,40.219 -2.363,85.03 2,122 2.484,4.183 12.318,1.016 15,5 -1.941,3.757 -8.047,1.927 -12,2 -11.55,0.214 -28.027,0.635 -39,-1 0.075,-5.258 8.762,-1.905 11,-5 4.486,-36.847 0.799,-81.868 2,-122 -9.116,1.902 -24.2,-2.975 -33,1 -7.305,3.3 -3.557,9.953 -10,13 -2.486,-8.967 2.276,-18.948 3,-28 28.722,4.796 71.853,4.097 102,1 z" id="path16" style="fill:#949494;fill-rule:evenodd"/><path d="m 85,47.082 c -0.411,5.59 -9.789,2.211 -12,6 -2.8,21.254 -3.149,60.678 -1,89 1.745,23 15.315,44.398 42,34 13.146,-5.122 17.885,-20.391 19,-40 1.465,-25.762 0.248,-59.539 -2,-82 -1.512,-5.487 -13.127,-0.873 -14,-7 6.32,-2.454 14.298,-0.047 22,0 7.738,0.047 16.602,-3.235 22,1 -1.657,4.01 -9.48,1.854 -12,5 -3.423,60.956 11.111,135.051 -50,136 -61.798,0.961 -46.658,-72.881 -50,-134 -0.919,-6.414 -13.188,-1.479 -14,-8 14.939,-0.773 35.122,-0.456 50,0 z" id="path20" style="fill:#949494;fill-rule:evenodd"/><path d="m 382,48.082 c -1.657,4.01 -9.48,1.854 -12,5 -3.085,31.949 -2.545,71.979 -1,106 0.302,6.639 -1.483,14.137 2,20 2.133,4.867 14.016,-0.016 15,6 -14.698,1.64 -36.309,1.687 -51,0 -2.609,-4.404 8.851,-2.147 11,-5 3.884,-37.491 2.072,-85.871 1,-125 -1.109,-5.891 -11.662,-2.338 -13,-8 0.81,-0.189 0.997,-1.003 2,-1 9.098,-0.111 19.401,1.422 29,1 5.932,-0.261 12.742,-3.404 17,1 z" id="path22" style="fill:#949494;fill-rule:evenodd"/><path d="m 440,48.082 c -0.756,3.911 -8.115,1.219 -10,4 7.038,36.296 21.274,65.392 30,100 11.762,-31.904 22.754,-64.579 33,-98 -1.247,-4.419 -8.416,-2.917 -12,-5 2.808,-5.852 11.566,-2.165 18,-2 8.104,0.208 17.494,-2.829 22,1 -0.35,3.65 -6.452,1.549 -9,3 -7.832,9.475 -10.4,22.313 -15,34 -8.978,22.812 -18.131,46.575 -27,71 -4.087,11.257 -6.416,25.276 -16,33 -11.169,-28.819 -24.942,-66.807 -37,-101 -5.472,-15.517 -6.445,-38.472 -27,-38 0,-1 0,-2 0,-3 0.81,-0.189 0.997,-1.003 2,-1 15.936,2.557 35.118,-1.863 48,2 z" id="path24" style="fill:#949494;fill-rule:evenodd"/><path d="m 697,121.082 c 5.425,8.747 11.947,18.799 19,29 6.692,9.681 15.239,24.158 24,29 4.28,2.365 9.654,1.692 14,5 -2.612,3.711 -9.423,1.934 -14,2 -6.77,0.099 -12.652,-0.021 -16,-1 -20.395,-5.964 -30.061,-41.829 -43,-56 -5.333,0 -10.667,0 -16,0 0.293,17.041 -1.098,35.765 2,50 1.636,4.054 15.219,1.418 14,5 -1.708,3.778 -7.284,1.912 -11,2 -11.248,0.268 -27.318,0.594 -38,-1 -0.143,-5.477 9.249,-1.418 11,-5 4.215,-20.933 3,-49.433 3,-77 0,-17.748 1.467,-35.838 -3,-50 -1.856,-4.478 -12.894,0.228 -13,-6 36.946,0.019 82.784,-8.965 87,28 2.273,19.928 -8.958,34.231 -20,46 z m -17,-65 c -4.877,1.123 -14.727,-2.727 -15,3 0,19.334 0,38.667 0,58 4.545,3.122 13.641,1.693 21,2 17.846,-11.956 15.328,-57.056 -6,-63 z" id="path26" style="fill:#949494;fill-rule:evenodd"/><path d="m 896,47.082 c -0.41,5.59 -9.789,2.211 -12,6 -1.805,19.803 -1,41.764 -1,64 0,21.267 -1.578,43.559 2,62 1.833,5.167 14.091,-0.091 15,6 -14.698,1.64 -36.309,1.687 -51,0 0.075,-5.258 8.762,-1.905 11,-5 3.676,-37.698 2.22,-85.724 1,-125 -1.099,-5.234 -9.805,-2.861 -12,-7 -0.163,-1.162 0.221,-1.779 1,-2 15.395,1.942 32.101,-0.509 46,1 z" id="path28" style="fill:#949494;fill-rule:evenodd"/><path d="m 1127.8125,46.625 c -3.5644,0.0023 -6.584,0.75225 -7.8125,3.3125 3.584,2.083 12.4244,-0.252926 15,4 -16.0586,27.940553 -36.1562,53.34375 -36.1562,53.34375 0,0 -6.0202,-4.2931 -16.8126,-29.0625 -5.3011,-12.166868 -7.4639,-14.459029 -9.5624,-25.28125 1.8849,-2.781 9.2439,-0.089 10,-4 -12.8821,-3.863 -32.0641,0.557 -48,-2 -1.003,-0.003 -1.1901,0.811 -2,1 l 0,3 c 20.5549,-0.472 29.625,23.53125 29.625,23.53125 0,0 -2.4198,-3.257113 18.5,37 2.9771,5.72906 4.8624,9.42154 6.4062,12.375 -5e-4,19.34361 -0.3534,39.72203 -2.0625,56.21875 -2.149,2.853 -13.609,0.596 -11,5 14.691,1.687 36.302,1.64 51,0 -0.984,-6.016 -12.867,-1.133 -15,-6 -3.483,-5.863 -1.698,-13.361 -2,-20 -0.5385,-11.85771 -0.9104,-24.43517 -1.0937,-37.15625 3.9853,-10.88547 8.9687,-16.78125 8.9687,-16.78125 L 1133.5,81.28125 c 0,0 13.1367,-19.86875 20.9688,-29.34375 2.548,-1.451 8.65,0.65 9,-3 -4.5061,-3.829 -13.896,-0.792 -22,-1 -3.6192,-0.09281 -9.0736,-1.315499 -13.6563,-1.3125 z" id="path24-2" style="fill:#949494;fill-rule:evenodd"/><path d="m 1398,69.53125 c -0.2038,0.738664 -0.8855,1.499286 -1.6562,1.625 -11.4439,1.868435 -30.7538,1.462453 -44.375,0.84375 -5.4919,-0.249781 -11.742,-3.526755 -14.7813,1.625 3.118,2.08535 10.0112,0.410313 11.5,4.125 2.9169,30.89738 2.3804,71.69645 0,102.6875 -1.2251,3.70566 -9.4583,0.42416 -9.875,4.9375 0.9908,0.0382 1.6241,0.058 2.4687,0.0937 -0,0.067 -0.03,0.11673 -0.031,0.1875 12.0709,1.38613 29.8295,1.34752 41.9062,0 -0.747,-5.00471 -10.8064,-0.69203 -12.3124,-4.9375 -1.6993,-1.65916 -2.7589,-11.27923 -3.375,-22.5625 -0.01,-0.092 0,-0.18898 0,-0.28125 -0.047,-9.36765 0.4387,-19.27419 0.125,-28.375 7.5493,0.11995 15.8188,-0.48736 22.1874,0.8125 4.478,1.27355 0.9096,10.62004 5.75,11.53125 1.5644,-7.74735 1.4647,-17.19228 2.4688,-25.5 -3.4411,0.33852 -4.2313,3.25816 -8.2188,4.125 -6.2092,1.34997 -15.0374,-1.00324 -22.1874,0 l 0,-40.25 c 9.2122,0.09942 19.5093,-0.914839 25.4687,2.4375 1.0928,3.564323 2.5869,6.756633 2.4687,11.53125 6.0587,-2.979308 2.3142,-15.772781 4.0938,-23.03125 -0.1733,-0.921894 -0.8938,-1.261009 -1.625,-1.625 z" id="path12-4" style="fill:#949494;fill-rule:evenodd"/><g transform="scale(0.96652004,1.0346397)" id="text3952" style="font-size:169.95510864px;font-style:normal;font-weight:normal;line-height:125%;letter-spacing:0px;word-spacing:0px;fill:#949494;fill-opacity:1;stroke:none;font-family:Sans"><path d="m 1316.9015,181.0227 c -15.3801,0 -28.1599,-5.0898 -38.3395,-15.2694 -10.6222,-10.62217 -15.9332,-24.56379 -15.9332,-41.82489 0,-18.03553 5.643,-32.364414 16.9291,-42.986695 10.1796,-9.626256 22.6274,-14.439433 37.3436,-14.439546 14.8268,1.13e-4 27.2746,4.757966 37.3437,14.273574 11.286,10.622282 16.929,25.006487 16.9291,43.152667 -10e-5,17.2611 -5.2559,31.20272 -15.7673,41.82489 -10.0691,10.1796 -22.9042,15.2694 -38.5055,15.2694 m 0,-5.97498 c 10.0689,0 18.2569,-3.98332 24.5639,-11.94997 7.192,-9.0731 10.788,-22.18486 10.7881,-39.33531 -10e-5,-17.48229 -3.7621,-30.760023 -11.2861,-39.833233 -6.307,-7.6346 -14.3289,-11.451947 -24.0659,-11.452053 -9.737,1.06e-4 -17.759,3.817453 -24.0659,11.452053 -7.5241,9.07321 -11.2861,22.350943 -11.2861,39.833233 0,17.15045 3.5961,30.26221 10.7882,39.33531 6.3069,7.96665 14.4948,11.94997 24.5638,11.94997" id="path3007" style="font-variant:normal;font-weight:500;font-stretch:normal;fill:#949494;font-family:Rekha;-inkscape-font-specification:Rekha Medium"/></g>
</svg>